# xmcd
#
# Track frame offsets:
#	150
#	17028
#	33542
#	48768
#	67499
#	86896
#	104576
#	122212
#	141862
#	155248
#	172638
#	192447
#	207357
#
# Disc length: 2943
#
# Revision: 1
# Processed by: cddbd v1.5.1PL0 Copyright (c) Steve Scherf et al.
# Submitted via: dBpowerAMP V4.0
# Normalized: r0:TRMNUM
#
DISCID=c20b7d0d
DTITLE=Marlon e Maicon - Coração Aventureiro
DYEAR=2004
DGENRE=Country
TTITLE0=Sem Palavras - Marlon e Maicon
TTITLE1=Qualquer Jeito - Marlon e Maicon
TTITLE2=Tudo Errado - Marlon e Maicon
TTITLE3=Tantas Palavras - Marlon e Maicon
TTITLE4=Coração Aventureiro - Marlon e Maicon
TTITLE5=Felicidade - Marlon e Maicon
TTITLE6=Deu Saudade - Marlon e Maicon
TTITLE7=Inocente Como Um Anjo - Marlon e Maicon
TTITLE8=Eu Vou Chorar - Marlon e Maicon
TTITLE9=Na Contramão do Trânsito - Marlon e Maicon
TTITLE10=Te Amo Assim - Marlon e Maicon
TTITLE11=Vou Te Esperar - Marlon e Maicon
TTITLE12=Profecia de Amor e Paixão - Marlon e Maicon
EXTD=
EXTT0=
EXTT1=
EXTT2=
EXTT3=
EXTT4=
EXTT5=
EXTT6=
EXTT7=
EXTT8=
EXTT9=
EXTT10=
EXTT11=
EXTT12=
PLAYORDER=
